# xmcd CD database file
#
# Track frame offsets:
#	150
#	15598
#	30088
#	44763
#	59025
#	75098
#	91808
#	107618
#	124560
#	140253
#	153323
#	167883
#	185120
#	199953
#	221065
#	234573
#	245350
#	264105
#	278783
#	293530
#
# Disc length: 4130 seconds
#
# Revision: 1
# Processed by: cddbd v1.5.1PL0 Copyright (c) Steve Scherf et al.
# Submitted via: CDex 1.51
#
DISCID=0d102014
DTITLE=Various Artist - SUPER HERO CHRONICLE スーパー戦隊 主題歌・挿入歌 大全集?(DISC2)
DYEAR=2004
DGENRE=Anime
TTITLE0=佐藤健太 コーラス：こおろぎ'73、SHINES/ターボ・ビクトリー
TTITLE1=佐藤健太 コーラス：こおろぎ'73、SHINES/勇気は満タン！ターボレンジャー
TTITLE2=茅弘二/明日にアクセル！ターボロボ
TTITLE3=佐藤健太/ジグザグ青春ロード
TTITLE4=石原慎一/タックル！ターボラガー
TTITLE5=鈴木けんじ/地球戦隊ファイブマン
TTITLE6=鈴木けんじ/熱いビートでファイブマン
TTITLE7=Y.F.ZOMBIE COMPANY/おれたちウラヒーロー
TTITLE8=鈴木けんじ コーラス：SHINES/ジャンケンジャンプ！ファイブマン
TTITLE9=影山ヒロノブ/五つの心でファイブロボ
TTITLE10=CHIEMY/カンフー・ダンス
TTITLE11=松本梨香/スーパー・アーサー
TTITLE12=鈴木けんじ コーラス：SHINES/ブラザー・ブラッド
TTITLE13=CHIEMY コーラス：SHINES/ハンド・イン・ハンド
TTITLE14=鈴木けんじ/ファイブマン、愛のテーマ
TTITLE15=鈴木智太 コーラス：森の木児童合唱団/地球はほがらかじま
TTITLE16=高原兄/兄弟ロボだぜ！スターファイブ
TTITLE17=影山ヒロノブ/鳥人戦隊ジェットマン
TTITLE18=影山ヒロノブ/時を駆けて
TTITLE19=若松俊秀/炎のコンドル
EXTD=YEAR: 2004
EXTT0=
EXTT1=
EXTT2=
EXTT3=
EXTT4=
EXTT5=
EXTT6=
EXTT7=
EXTT8=
EXTT9=
EXTT10=
EXTT11=
EXTT12=
EXTT13=
EXTT14=
EXTT15=
EXTT16=
EXTT17=
EXTT18=
EXTT19=
PLAYORDER=
